<svg width="345" height="235" viewBox="0 0 345 235" fill="none" xmlns="http://www.w3.org/2000/svg">
<g filter="url(#filter0_df_7_2484)">
<path d="M84.1118 151.964C84.1118 144.805 88.4368 138.078 96.0248 132.239C70.2978 121.311 54.0898 105.39 54.0898 87.665C54.0898 54.713 110.09 28 179.174 28C248.258 28 304.258 54.713 304.258 87.665C304.258 105.565 287.74 121.619 261.575 132.555C268.911 138.32 273.082 144.933 273.082 151.964C273.082 174.364 230.782 192.513 178.598 192.513C126.414 192.513 84.1118 174.359 84.1118 151.964Z" fill="url(#paint0_linear_7_2484)"/>
<path d="M178.597 191.513C191.292 191.513 203.606 190.446 215.196 188.342C226.373 186.313 236.405 183.412 245.013 179.717C249.239 177.904 253.073 175.91 256.408 173.791C259.757 171.664 262.629 169.394 264.944 167.046C269.68 162.24 272.081 157.166 272.081 151.964C272.081 148.7 271.119 145.449 269.222 142.3C267.352 139.195 264.571 136.181 260.957 133.341L259.617 132.289L261.189 131.632C267.673 128.922 273.58 125.883 278.746 122.6C283.933 119.303 288.396 115.744 292.011 112.024C295.669 108.258 298.478 104.303 300.362 100.269C302.283 96.1524 303.258 91.9119 303.258 87.6648C303.258 83.753 302.43 79.84 300.797 76.0345C299.196 72.3022 296.801 68.6246 293.68 65.104C290.596 61.6261 286.773 58.2678 282.319 55.1225C277.89 51.9957 272.8 49.0536 267.191 46.378C261.571 43.6971 255.384 41.2624 248.803 39.1416C242.151 36.9982 235.039 35.1569 227.664 33.669C212.308 30.5709 195.994 29 179.174 29C162.354 29 146.039 30.5709 130.683 33.669C123.308 35.1569 116.196 36.9982 109.545 39.1416C102.964 41.2624 96.7769 43.6971 91.1566 46.378C85.5472 49.0536 80.4575 51.9957 76.029 55.1225C71.5741 58.2678 67.7517 61.6261 64.6678 65.104C61.546 68.6246 59.1512 72.3022 57.5501 76.0345C55.9176 79.84 55.0898 83.753 55.0898 87.6648C55.0898 91.871 56.0461 96.0719 57.9319 100.151C59.7803 104.149 62.5387 108.071 66.1305 111.808C69.6789 115.5 74.0626 119.035 79.1597 122.316C84.2336 125.582 90.0393 128.611 96.4153 131.319L97.9907 131.988L96.6341 133.032C92.8933 135.91 90.0135 138.971 88.0747 142.129C86.1085 145.332 85.1116 148.641 85.1116 151.964C85.1116 157.166 87.513 162.24 92.249 167.046C94.564 169.394 97.4357 171.664 100.784 173.791C104.119 175.91 107.954 177.904 112.18 179.717C120.788 183.412 130.82 186.313 141.998 188.342C153.587 190.446 165.901 191.513 178.597 191.513ZM178.597 192.513C126.414 192.513 84.1116 174.359 84.1116 151.964C84.1116 144.804 88.4363 138.077 96.0243 132.239C70.2973 121.311 54.0898 105.39 54.0898 87.6648C54.0898 54.7127 110.092 28 179.174 28C248.256 28 304.258 54.7127 304.258 87.6648C304.258 105.563 287.739 121.619 261.574 132.555C268.911 138.319 273.081 144.933 273.081 151.964C273.081 174.359 230.779 192.513 178.597 192.513Z" fill="white" fill-opacity="0.5"/>
</g>
<g filter="url(#filter1_f_7_2484)">
<path d="M65.2618 134.391C65.2618 134.391 49.2548 152.414 52.1008 163.201C54.9468 173.988 62.6678 183.416 102.313 190.625C141.958 197.834 211.783 190.625 211.783 190.625" stroke="#B2B2B2" stroke-width="8"/>
<path d="M95.5363 191.278C95.5363 191.278 85.6943 200.77 88.5033 208.278C91.3123 215.786 102.567 221.186 112.327 222.914C123.193 225.003 134.225 226.108 145.289 226.214C162.982 226.328 180.573 221.455 180.573 221.455" stroke="#B2B2B2" stroke-width="8" stroke-linecap="round"/>
<path d="M154.22 147.812C225.536 147.812 283.349 121.215 283.349 88.406C283.349 55.597 225.536 29 154.22 29C82.9038 29 25.0908 55.597 25.0908 88.406C25.0908 121.215 82.9038 147.812 154.22 147.812Z" stroke="#B2B2B2" stroke-width="8"/>
</g>
<g filter="url(#filter2_f_7_2484)">
<path d="M61.2651 206.5L56.2451 211.52" stroke="#FFD100" stroke-width="4" stroke-linecap="round"/>
<path d="M56.2451 206.5L61.2651 211.52" stroke="#FFD100" stroke-width="4" stroke-linecap="round"/>
<path d="M295.265 123.5L290.245 128.52" stroke="#FFD100" stroke-width="4" stroke-linecap="round"/>
<path d="M290.245 123.5L295.265 128.52" stroke="#FFD100" stroke-width="4" stroke-linecap="round"/>
</g>
<g filter="url(#filter3_f_7_2484)">
<path d="M17.329 125.296H42.985L28.24 146.954L45.484 147.28L9.284 190.12L18.054 157.458H2L17.329 125.296Z" fill="url(#paint1_linear_7_2484)"/>
<path d="M253.329 155.296H278.985L264.24 176.954L281.484 177.28L245.284 220.12L254.054 187.458H238L253.329 155.296Z" fill="url(#paint2_linear_7_2484)"/>
</g>
<defs>
<filter id="filter0_df_7_2484" x="34.0898" y="0" width="310.168" height="224.513" filterUnits="userSpaceOnUse" color-interpolation-filters="sRGB">
<feFlood flood-opacity="0" result="BackgroundImageFix"/>
<feColorMatrix in="SourceAlpha" type="matrix" values="0 0 0 0 0 0 0 0 0 0 0 0 0 0 0 0 0 0 127 0" result="hardAlpha"/>
<feOffset dx="10" dy="2"/>
<feGaussianBlur stdDeviation="15"/>
<feColorMatrix type="matrix" values="0 0 0 0 0.258824 0 0 0 0 0.627451 0 0 0 0 0.941176 0 0 0 0.596 0"/>
<feBlend mode="normal" in2="BackgroundImageFix" result="effect1_dropShadow_7_2484"/>
<feBlend mode="normal" in="SourceGraphic" in2="effect1_dropShadow_7_2484" result="shape"/>
<feGaussianBlur stdDeviation="2" result="effect2_foregroundBlur_7_2484"/>
</filter>
<filter id="filter1_f_7_2484" x="17.0908" y="21" width="274.258" height="213.216" filterUnits="userSpaceOnUse" color-interpolation-filters="sRGB">
<feFlood flood-opacity="0" result="BackgroundImageFix"/>
<feBlend mode="normal" in="SourceGraphic" in2="BackgroundImageFix" result="shape"/>
<feGaussianBlur stdDeviation="2" result="effect1_foregroundBlur_7_2484"/>
</filter>
<filter id="filter2_f_7_2484" x="52.2451" y="119.5" width="247.02" height="96.02" filterUnits="userSpaceOnUse" color-interpolation-filters="sRGB">
<feFlood flood-opacity="0" result="BackgroundImageFix"/>
<feBlend mode="normal" in="SourceGraphic" in2="BackgroundImageFix" result="shape"/>
<feGaussianBlur stdDeviation="1" result="effect1_foregroundBlur_7_2484"/>
</filter>
<filter id="filter3_f_7_2484" x="0" y="123.296" width="283.484" height="98.824" filterUnits="userSpaceOnUse" color-interpolation-filters="sRGB">
<feFlood flood-opacity="0" result="BackgroundImageFix"/>
<feBlend mode="normal" in="SourceGraphic" in2="BackgroundImageFix" result="shape"/>
<feGaussianBlur stdDeviation="1" result="effect1_foregroundBlur_7_2484"/>
</filter>
<linearGradient id="paint0_linear_7_2484" x1="155.408" y1="48.7286" x2="210.488" y2="199.53" gradientUnits="userSpaceOnUse">
<stop stop-color="white" stop-opacity="0.596"/>
<stop offset="1" stop-color="#F7F7F7" stop-opacity="0.204"/>
</linearGradient>
<linearGradient id="paint1_linear_7_2484" x1="19.7415" y1="157.708" x2="-0.569727" y2="150.261" gradientUnits="userSpaceOnUse">
<stop stop-color="#FFD100"/>
<stop offset="1" stop-color="#FFF0AA"/>
</linearGradient>
<linearGradient id="paint2_linear_7_2484" x1="255.741" y1="187.708" x2="235.43" y2="180.261" gradientUnits="userSpaceOnUse">
<stop stop-color="#FFD100"/>
<stop offset="1" stop-color="#FFF0AA"/>
</linearGradient>
</defs>
</svg>
