<svg width="217" height="342" viewBox="0 0 217 342" fill="none" xmlns="http://www.w3.org/2000/svg">
<g filter="url(#filter0_f_7_2790)">
<path d="M67 178.583C93.5097 178.583 115 157.092 115 130.583C115 104.073 93.5097 82.5825 67 82.5825C40.4903 82.5825 19 104.073 19 130.583C19 157.092 40.4903 178.583 67 178.583Z" fill="#FA9E42"/>
<path d="M67 188.583C99.0325 188.583 125 162.615 125 130.583C125 98.55 99.0325 72.5825 67 72.5825C34.9675 72.5825 9 98.55 9 130.583C9 162.615 34.9675 188.583 67 188.583Z" stroke="#FA9E42" stroke-width="10" stroke-linecap="round" stroke-dasharray="1 66"/>
<g filter="url(#filter1_f_7_2790)">
<path d="M61.6227 120.764C78.6364 111.727 88.2607 96.5543 83.1191 86.8741C77.9775 77.1939 60.0171 76.6723 43.0034 85.7091C25.9896 94.7458 16.3653 109.919 21.5069 119.599C26.6485 129.279 44.6089 129.801 61.6227 120.764Z" fill="#F8E36F"/>
</g>
</g>
<g filter="url(#filter2_df_7_2790)">
<g filter="url(#filter3_d_7_2790)">
<path d="M83.768 199.054L83.768 63.0005C83.768 53.7179 87.4555 44.8155 94.0192 38.2518C100.583 31.688 109.485 28.0005 118.768 28.0005C128.051 28.0005 136.953 31.688 143.517 38.2518C150.08 44.8155 153.768 53.7179 153.768 63.0005L153.768 201.97C162.845 209.089 169.677 218.673 173.448 229.574C177.219 240.475 177.768 252.232 175.03 263.438C172.291 274.643 166.382 284.822 158.008 292.755C149.634 300.689 139.152 306.041 127.815 308.17C123.7 309.262 119.422 309.601 115.187 309.17C102.415 308.838 90.0831 304.437 79.9858 296.609C69.8886 288.781 62.5533 277.935 59.0477 265.649C55.5422 253.364 56.0495 240.28 60.4957 228.302C64.9419 216.325 73.095 206.079 83.768 199.056V199.054Z" fill="url(#paint0_linear_7_2790)"/>
<path d="M57.7445 249.189C57.7445 257.029 59.2573 264.644 62.2409 271.821C65.1228 278.754 69.2558 285.005 74.5249 290.402C77.1203 293.061 79.9791 295.485 83.0221 297.609C86.0913 299.75 89.3765 301.605 92.7863 303.122C99.8681 306.273 107.414 307.971 115.214 308.169L115.252 308.17L115.289 308.174C116.437 308.291 117.608 308.35 118.769 308.35C121.75 308.35 124.707 307.964 127.558 307.203L127.595 307.193L127.633 307.186C134.372 305.929 140.788 303.521 146.701 300.029C152.492 296.61 157.625 292.258 161.958 287.096C166.323 281.896 169.728 276.046 172.079 269.71C174.512 263.153 175.745 256.248 175.745 249.189C175.745 244.564 175.208 239.958 174.149 235.501C173.12 231.169 171.592 226.949 169.607 222.957C167.658 219.036 165.262 215.323 162.486 211.919C159.725 208.536 156.585 205.453 153.151 202.757L152.769 202.457V201.97L152.769 63.0001C152.769 58.4096 151.87 53.957 150.098 49.766C148.385 45.7174 145.934 42.0811 142.811 38.9583C139.688 35.8355 136.052 33.3839 132.003 31.6715C127.812 29.8988 123.359 29 118.769 29C114.178 29 109.726 29.8988 105.535 31.6715C101.486 33.3839 97.85 35.8355 94.7272 38.9583C91.6043 42.0811 89.1527 45.7174 87.4403 49.766C85.6676 53.957 84.7688 58.4096 84.7688 63.0001L84.7688 199.055V199.593L84.3191 199.89C76.3156 205.164 69.6445 212.384 65.0271 220.769C62.6798 225.031 60.8691 229.575 59.6452 234.275C58.384 239.117 57.7445 244.135 57.7445 249.189ZM56.7445 249.189C56.7445 228.231 67.4874 209.785 83.7688 199.055L83.7688 63.0001C83.7688 43.6699 99.4387 28 118.769 28C138.099 28 153.769 43.6699 153.769 63.0001L153.769 201.97C167.758 212.955 176.745 230.023 176.745 249.189C176.745 278.544 155.665 302.975 127.816 308.169C124.93 308.94 121.898 309.35 118.769 309.35C117.56 309.35 116.366 309.289 115.188 309.169C82.7697 308.344 56.7445 281.806 56.7445 249.189Z" fill="white" fill-opacity="0.5"/>
</g>
<path d="M72.6182 250.554C72.6163 242.091 74.9491 233.792 79.3599 226.569C83.7707 219.347 90.0886 213.481 97.6182 209.617V85.5544H139.618V209.616C146.888 213.347 153.033 218.946 157.421 225.838C161.809 232.73 164.282 240.667 164.586 248.832C164.89 256.998 163.014 265.096 159.15 272.296C155.286 279.495 149.574 285.536 142.602 289.796C135.63 294.056 127.649 296.382 119.479 296.535C111.31 296.688 103.247 294.662 96.1204 290.666C88.9936 286.67 83.0597 280.848 78.9291 273.798C74.7985 266.748 72.6202 258.725 72.6182 250.554Z" fill="white"/>
</g>
<defs>
<filter id="filter0_f_7_2790" x="2" y="65.5825" width="130" height="130" filterUnits="userSpaceOnUse" color-interpolation-filters="sRGB">
<feFlood flood-opacity="0" result="BackgroundImageFix"/>
<feBlend mode="normal" in="SourceGraphic" in2="BackgroundImageFix" result="shape"/>
<feGaussianBlur stdDeviation="1" result="effect1_foregroundBlur_7_2790"/>
</filter>
<filter id="filter1_f_7_2790" x="0.12207" y="59.2585" width="104.382" height="87.9563" filterUnits="userSpaceOnUse" color-interpolation-filters="sRGB">
<feFlood flood-opacity="0" result="BackgroundImageFix"/>
<feBlend mode="normal" in="SourceGraphic" in2="BackgroundImageFix" result="shape"/>
<feGaussianBlur stdDeviation="10" result="effect1_foregroundBlur_7_2790"/>
</filter>
<filter id="filter2_df_7_2790" x="36.7441" y="0" width="180.001" height="341.351" filterUnits="userSpaceOnUse" color-interpolation-filters="sRGB">
<feFlood flood-opacity="0" result="BackgroundImageFix"/>
<feColorMatrix in="SourceAlpha" type="matrix" values="0 0 0 0 0 0 0 0 0 0 0 0 0 0 0 0 0 0 127 0" result="hardAlpha"/>
<feOffset dx="10" dy="2"/>
<feGaussianBlur stdDeviation="15"/>
<feColorMatrix type="matrix" values="0 0 0 0 0.258824 0 0 0 0 0.627451 0 0 0 0 0.941176 0 0 0 0.596 0"/>
<feBlend mode="normal" in2="BackgroundImageFix" result="effect1_dropShadow_7_2790"/>
<feBlend mode="normal" in="SourceGraphic" in2="effect1_dropShadow_7_2790" result="shape"/>
<feGaussianBlur stdDeviation="1" result="effect2_foregroundBlur_7_2790"/>
</filter>
<filter id="filter3_d_7_2790" x="36.7441" y="0" width="180.001" height="341.351" filterUnits="userSpaceOnUse" color-interpolation-filters="sRGB">
<feFlood flood-opacity="0" result="BackgroundImageFix"/>
<feColorMatrix in="SourceAlpha" type="matrix" values="0 0 0 0 0 0 0 0 0 0 0 0 0 0 0 0 0 0 127 0" result="hardAlpha"/>
<feOffset dx="10" dy="2"/>
<feGaussianBlur stdDeviation="15"/>
<feColorMatrix type="matrix" values="0 0 0 0 0.501961 0 0 0 0 0.501961 0 0 0 0 0.501961 0 0 0 0.302 0"/>
<feBlend mode="normal" in2="BackgroundImageFix" result="effect1_dropShadow_7_2790"/>
<feBlend mode="normal" in="SourceGraphic" in2="effect1_dropShadow_7_2790" result="shape"/>
</filter>
<linearGradient id="paint0_linear_7_2790" x1="161.625" y1="141.948" x2="43.5768" y2="169.912" gradientUnits="userSpaceOnUse">
<stop stop-color="white" stop-opacity="0.596"/>
<stop offset="1" stop-color="#F7F7F7" stop-opacity="0.204"/>
</linearGradient>
</defs>
</svg>
