<svg width="224" height="207" viewBox="0 0 224 207" fill="none" xmlns="http://www.w3.org/2000/svg">
<g filter="url(#filter0_f_7_2243)">
<path d="M182.339 124V200.792" stroke="#42A0F0" stroke-width="6" stroke-linecap="round"/>
<path d="M182.186 142.771L195.411 129.119" stroke="#42A0F0" stroke-width="6" stroke-linecap="round"/>
<path d="M182.185 142.771L168.533 129.119" stroke="#42A0F0" stroke-width="6" stroke-linecap="round"/>
<path d="M182.186 183.727L195.411 197.379" stroke="#42A0F0" stroke-width="6" stroke-linecap="round"/>
<path d="M182.185 183.727L168.533 197.379" stroke="#42A0F0" stroke-width="6" stroke-linecap="round"/>
<path d="M215.407 143.517L148.903 181.913" stroke="#42A0F0" stroke-width="6" stroke-linecap="round"/>
<path d="M199.074 152.768L217.509 157.396" stroke="#42A0F0" stroke-width="6" stroke-linecap="round"/>
<path d="M199.073 152.769L204.07 134.12" stroke="#42A0F0" stroke-width="6" stroke-linecap="round"/>
<path d="M163.604 173.246L158.394 191.525" stroke="#42A0F0" stroke-width="6" stroke-linecap="round"/>
<path d="M163.604 173.246L144.955 168.249" stroke="#42A0F0" stroke-width="6" stroke-linecap="round"/>
<path d="M215.039 181.913L148.535 143.517" stroke="#42A0F0" stroke-width="6" stroke-linecap="round"/>
<path d="M198.86 172.393L204.07 190.672" stroke="#42A0F0" stroke-width="6" stroke-linecap="round"/>
<path d="M198.86 172.393L217.509 167.396" stroke="#42A0F0" stroke-width="6" stroke-linecap="round"/>
<path d="M163.391 151.916L144.955 156.543" stroke="#42A0F0" stroke-width="6" stroke-linecap="round"/>
<path d="M163.391 151.916L158.394 133.267" stroke="#42A0F0" stroke-width="6" stroke-linecap="round"/>
<path d="M108.339 6V82.792" stroke="#42A0F0" stroke-width="6" stroke-linecap="round"/>
<path d="M108.186 24.7711L121.411 11.1191" stroke="#42A0F0" stroke-width="6" stroke-linecap="round"/>
<path d="M108.185 24.7711L94.5332 11.1191" stroke="#42A0F0" stroke-width="6" stroke-linecap="round"/>
<path d="M108.186 65.7271L121.411 79.3791" stroke="#42A0F0" stroke-width="6" stroke-linecap="round"/>
<path d="M108.185 65.7271L94.5332 79.3791" stroke="#42A0F0" stroke-width="6" stroke-linecap="round"/>
<path d="M141.407 25.5166L74.9034 63.9126" stroke="#42A0F0" stroke-width="6" stroke-linecap="round"/>
<path d="M125.074 34.7684L143.509 39.3956" stroke="#42A0F0" stroke-width="6" stroke-linecap="round"/>
<path d="M125.073 34.7686L130.07 16.1196" stroke="#42A0F0" stroke-width="6" stroke-linecap="round"/>
<path d="M89.6045 55.2461L84.394 73.5253" stroke="#42A0F0" stroke-width="6" stroke-linecap="round"/>
<path d="M89.6043 55.2463L70.9553 50.2493" stroke="#42A0F0" stroke-width="6" stroke-linecap="round"/>
<path d="M141.039 63.9126L74.5352 25.5166" stroke="#42A0F0" stroke-width="6" stroke-linecap="round"/>
<path d="M124.86 54.3932L130.07 72.6724" stroke="#42A0F0" stroke-width="6" stroke-linecap="round"/>
<path d="M124.86 54.3935L143.509 49.3965" stroke="#42A0F0" stroke-width="6" stroke-linecap="round"/>
<path d="M89.3906 33.9155L70.9551 38.5427" stroke="#42A0F0" stroke-width="6" stroke-linecap="round"/>
<path d="M89.3908 33.9158L84.3938 15.2668" stroke="#42A0F0" stroke-width="6" stroke-linecap="round"/>
<path d="M44.3389 124L44.3389 200.792" stroke="#42A0F0" stroke-width="6" stroke-linecap="round"/>
<path d="M44.1855 142.771L57.4105 129.119" stroke="#42A0F0" stroke-width="6" stroke-linecap="round"/>
<path d="M44.1852 142.771L30.5332 129.119" stroke="#42A0F0" stroke-width="6" stroke-linecap="round"/>
<path d="M44.1855 183.727L57.4105 197.379" stroke="#42A0F0" stroke-width="6" stroke-linecap="round"/>
<path d="M44.1852 183.727L30.5332 197.379" stroke="#42A0F0" stroke-width="6" stroke-linecap="round"/>
<path d="M77.4072 143.517L10.9034 181.913" stroke="#42A0F0" stroke-width="6" stroke-linecap="round"/>
<path d="M61.0735 152.768L79.509 157.396" stroke="#42A0F0" stroke-width="6" stroke-linecap="round"/>
<path d="M61.0733 152.769L66.0703 134.12" stroke="#42A0F0" stroke-width="6" stroke-linecap="round"/>
<path d="M25.6045 173.246L20.394 191.525" stroke="#42A0F0" stroke-width="6" stroke-linecap="round"/>
<path d="M25.6043 173.246L6.95534 168.249" stroke="#42A0F0" stroke-width="6" stroke-linecap="round"/>
<path d="M77.0391 181.913L10.5352 143.517" stroke="#42A0F0" stroke-width="6" stroke-linecap="round"/>
<path d="M60.8596 172.393L66.0701 190.672" stroke="#42A0F0" stroke-width="6" stroke-linecap="round"/>
<path d="M60.8598 172.393L79.5088 167.396" stroke="#42A0F0" stroke-width="6" stroke-linecap="round"/>
<path d="M25.3906 151.916L6.95515 156.543" stroke="#42A0F0" stroke-width="6" stroke-linecap="round"/>
<path d="M25.3908 151.916L20.3938 133.267" stroke="#42A0F0" stroke-width="6" stroke-linecap="round"/>
</g>
<defs>
<filter id="filter0_f_7_2243" x="0.954102" y="0" width="222.556" height="206.792" filterUnits="userSpaceOnUse" color-interpolation-filters="sRGB">
<feFlood flood-opacity="0" result="BackgroundImageFix"/>
<feBlend mode="normal" in="SourceGraphic" in2="BackgroundImageFix" result="shape"/>
<feGaussianBlur stdDeviation="1.5" result="effect1_foregroundBlur_7_2243"/>
</filter>
</defs>
</svg>
