<svg width="392" height="302" viewBox="0 0 392 302" fill="none" xmlns="http://www.w3.org/2000/svg">
<g filter="url(#filter0_f_7_395)">
<path d="M126.034 206.835C126.563 207.318 115.494 231.126 109.062 238.526C102.63 245.925 94.7212 249.575 91.3944 246.683C88.0677 243.792 90.5814 235.452 97.0141 228.052C103.447 220.652 125.506 206.351 126.034 206.835Z" fill="#42A0F0"/>
<path d="M98.1589 233.023C98.8051 234.057 101.042 233.825 103.155 232.505C105.269 231.184 106.458 229.275 105.812 228.241C105.165 227.207 102.928 227.439 100.815 228.76C98.7019 230.08 97.5127 231.989 98.1589 233.023Z" fill="white"/>
<path d="M194.034 206.835C194.563 207.318 183.494 231.126 177.062 238.526C170.63 245.925 162.721 249.575 159.394 246.683C156.068 243.792 158.581 235.452 165.014 228.052C171.447 220.652 193.506 206.351 194.034 206.835Z" fill="#42A0F0"/>
<path d="M166.159 233.023C166.805 234.057 169.042 233.825 171.155 232.505C173.269 231.184 174.458 229.275 173.812 228.241C173.165 227.207 170.928 227.439 168.815 228.76C166.702 230.08 165.513 231.989 166.159 233.023Z" fill="white"/>
<path d="M202.034 256.835C202.563 257.318 191.494 281.126 185.062 288.526C178.63 295.925 170.721 299.575 167.394 296.683C164.068 293.792 166.581 285.452 173.014 278.052C179.447 270.652 201.506 256.351 202.034 256.835Z" fill="#42A0F0"/>
<path d="M174.159 283.023C174.805 284.057 177.042 283.825 179.155 282.505C181.269 281.184 182.458 279.275 181.812 278.241C181.165 277.207 178.928 277.439 176.815 278.76C174.702 280.08 173.513 281.989 174.159 283.023Z" fill="white"/>
<path d="M126.034 256.835C126.563 257.318 115.494 281.126 109.062 288.526C102.63 295.925 94.7212 299.575 91.3944 296.683C88.0677 293.792 90.5814 285.452 97.0141 278.052C103.447 270.652 125.506 256.351 126.034 256.835Z" fill="#42A0F0"/>
<path d="M98.1589 283.023C98.8051 284.057 101.042 283.825 103.155 282.505C105.269 281.184 106.458 279.275 105.812 278.241C105.165 277.207 102.928 277.439 100.815 278.76C98.7019 280.08 97.5127 281.989 98.1589 283.023Z" fill="white"/>
</g>
<g filter="url(#filter1_f_7_395)">
<path d="M256.314 212.557H287.821L269.708 239.157L290.886 239.557L246.435 292.168L257.206 252.057H237.488L256.314 212.557Z" fill="url(#paint0_linear_7_395)"/>
</g>
<g filter="url(#filter2_df_7_395)">
<g filter="url(#filter3_d_7_395)">
<path d="M235.562 233.765C233.629 233.92 231.676 233.999 229.705 234H92.1812C82.7149 234.035 73.3348 232.201 64.579 228.603C55.8232 225.005 47.8639 219.714 41.1577 213.032C34.4516 206.351 29.1305 198.412 25.4997 189.669C21.869 180.927 20 171.554 20 162.087C20 152.621 21.869 143.248 25.4997 134.506C29.1305 125.763 34.4516 117.824 41.1577 111.143C47.8639 104.461 55.8232 99.17 64.579 95.5718C73.3348 91.9737 82.7149 90.1397 92.1812 90.175H143.456C160.08 53.6 198.368 28 242.941 28C302.768 28 351.268 74.115 351.268 131C351.268 187.885 302.768 234 242.941 234C240.461 234 238.001 233.922 235.562 233.765Z" fill="url(#paint1_linear_7_395)"/>
<path d="M242.941 233C250.227 233 257.508 232.302 264.581 230.926C271.475 229.585 278.255 227.584 284.733 224.978C291.094 222.42 297.229 219.254 302.967 215.568C308.65 211.917 313.994 207.725 318.851 203.107C323.706 198.49 328.114 193.411 331.952 188.009C335.826 182.557 339.154 176.728 341.842 170.686C344.579 164.532 346.681 158.093 348.09 151.547C349.535 144.831 350.268 137.917 350.268 131C350.268 124.082 349.535 117.169 348.09 110.452C346.681 103.906 344.579 97.4673 341.842 91.3142C339.154 85.2716 335.826 79.4433 331.952 73.991C328.114 68.5893 323.706 63.5095 318.851 58.8928C313.994 54.2752 308.65 50.0829 302.967 46.4323C297.229 42.7461 291.094 39.5801 284.733 37.0221C278.255 34.4165 271.475 32.4154 264.581 31.0742C257.508 29.6979 250.227 29 242.941 29C221.57 29 200.931 34.9523 183.254 46.2135C174.734 51.6418 167.077 58.1939 160.497 65.6878C153.875 73.2291 148.448 81.6069 144.366 90.5885L144.1 91.1747H143.456H92.1807C82.6072 91.1747 73.3205 93.0495 64.5787 96.747C60.3771 98.5242 56.3245 100.724 52.5336 103.285C48.7784 105.822 45.2472 108.735 42.038 111.945C38.8288 115.154 35.9152 118.685 33.3783 122.44C30.8172 126.231 28.6175 130.284 26.8404 134.485C23.1429 143.227 21.2681 152.514 21.2681 162.087C21.2681 171.661 23.1429 180.948 26.8404 189.689C28.6175 193.891 30.8172 197.944 33.3783 201.735C35.9152 205.49 38.8288 209.021 42.038 212.23C45.2472 215.439 48.7784 218.353 52.5336 220.89C56.3245 223.451 60.3771 225.651 64.5787 227.428C73.3205 231.125 82.6072 233 92.1807 233H229.705C231.628 233 233.572 232.922 235.482 232.768L235.554 232.762L235.626 232.767C238.046 232.922 240.507 233 242.941 233ZM242.941 234C240.461 234 238 233.921 235.562 233.765C233.632 233.92 231.676 234 229.705 234H92.1807C52.4646 234 20.2681 201.803 20.2681 162.087C20.2681 122.371 52.4646 90.1747 92.1807 90.1747H143.456C160.08 53.5954 198.366 28 242.941 28C302.768 28 351.268 74.1151 351.268 131C351.268 187.885 302.768 234 242.941 234Z" fill="white" fill-opacity="0.5"/>
</g>
</g>
<defs>
<filter id="filter0_f_7_395" x="85.9253" y="202.823" width="120.127" height="98.8521" filterUnits="userSpaceOnUse" color-interpolation-filters="sRGB">
<feFlood flood-opacity="0" result="BackgroundImageFix"/>
<feBlend mode="normal" in="SourceGraphic" in2="BackgroundImageFix" result="shape"/>
<feGaussianBlur stdDeviation="2" result="effect1_foregroundBlur_7_395"/>
</filter>
<filter id="filter1_f_7_395" x="233.488" y="208.557" width="61.3979" height="87.6108" filterUnits="userSpaceOnUse" color-interpolation-filters="sRGB">
<feFlood flood-opacity="0" result="BackgroundImageFix"/>
<feBlend mode="normal" in="SourceGraphic" in2="BackgroundImageFix" result="shape"/>
<feGaussianBlur stdDeviation="2" result="effect1_foregroundBlur_7_395"/>
</filter>
<filter id="filter2_df_7_395" x="0" y="0" width="391.268" height="266" filterUnits="userSpaceOnUse" color-interpolation-filters="sRGB">
<feFlood flood-opacity="0" result="BackgroundImageFix"/>
<feColorMatrix in="SourceAlpha" type="matrix" values="0 0 0 0 0 0 0 0 0 0 0 0 0 0 0 0 0 0 127 0" result="hardAlpha"/>
<feOffset dx="10" dy="2"/>
<feGaussianBlur stdDeviation="15"/>
<feColorMatrix type="matrix" values="0 0 0 0 0.258824 0 0 0 0 0.627451 0 0 0 0 0.941176 0 0 0 0.596 0"/>
<feBlend mode="normal" in2="BackgroundImageFix" result="effect1_dropShadow_7_395"/>
<feBlend mode="normal" in="SourceGraphic" in2="effect1_dropShadow_7_395" result="shape"/>
<feGaussianBlur stdDeviation="2" result="effect2_foregroundBlur_7_395"/>
</filter>
<filter id="filter3_d_7_395" x="0" y="0" width="391.268" height="266" filterUnits="userSpaceOnUse" color-interpolation-filters="sRGB">
<feFlood flood-opacity="0" result="BackgroundImageFix"/>
<feColorMatrix in="SourceAlpha" type="matrix" values="0 0 0 0 0 0 0 0 0 0 0 0 0 0 0 0 0 0 127 0" result="hardAlpha"/>
<feOffset dx="10" dy="2"/>
<feGaussianBlur stdDeviation="15"/>
<feColorMatrix type="matrix" values="0 0 0 0 0.501961 0 0 0 0 0.501961 0 0 0 0 0.501961 0 0 0 0.302 0"/>
<feBlend mode="normal" in2="BackgroundImageFix" result="effect1_dropShadow_7_395"/>
<feBlend mode="normal" in="SourceGraphic" in2="effect1_dropShadow_7_395" result="shape"/>
</filter>
<linearGradient id="paint0_linear_7_395" x1="259.275" y1="252.363" x2="234.332" y2="243.219" gradientUnits="userSpaceOnUse">
<stop stop-color="#FFD100"/>
<stop offset="1" stop-color="#FFF0AA"/>
</linearGradient>
<linearGradient id="paint1_linear_7_395" x1="154.164" y1="53.9561" x2="220.206" y2="245.168" gradientUnits="userSpaceOnUse">
<stop stop-color="white" stop-opacity="0.596"/>
<stop offset="1" stop-color="#F7F7F7" stop-opacity="0.204"/>
</linearGradient>
</defs>
</svg>
